<svg width="66" height="67" viewBox="0 0 66 67" fill="none" xmlns="http://www.w3.org/2000/svg">
<mask id="path-1-inside-1_93_202" fill="white">
<path d="M0 2.5222H66V51.5222C66 57.045 61.5228 61.5222 56 61.5222H10C4.47715 61.5222 0 57.045 0 51.5222V2.5222Z"/>
</mask>
<path d="M0 2.5222H66V51.5222C66 57.045 61.5228 61.5222 56 61.5222H10C4.47715 61.5222 0 57.045 0 51.5222V2.5222Z" fill="#E65F41"/>
<path d="M0 2.5222H66H0ZM67 51.5222C67 57.5973 62.0751 62.5222 56 62.5222H10C3.92487 62.5222 -1 57.5973 -1 51.5222H1C1 56.4928 5.02944 60.5222 10 60.5222H56C60.9706 60.5222 65 56.4928 65 51.5222H67ZM10 62.5222C3.92487 62.5222 -1 57.5973 -1 51.5222V2.5222H1V51.5222C1 56.4928 5.02944 60.5222 10 60.5222V62.5222ZM67 2.5222V51.5222C67 57.5973 62.0751 62.5222 56 62.5222V60.5222C60.9706 60.5222 65 56.4928 65 51.5222V2.5222H67Z" fill="#696969" fill-opacity="0.3" mask="url(#path-1-inside-1_93_202)"/>
<mask id="path-3-inside-2_93_202" fill="white">
<path d="M3 2.5222H63V48.5222C63 54.0451 58.5228 58.5222 53 58.5222H13C7.47715 58.5222 3 54.045 3 48.5222V2.5222Z"/>
</mask>
<path d="M3 2.5222H63H3ZM65 48.5222C65 55.1496 59.6274 60.5222 53 60.5222H13C6.37258 60.5222 1 55.1496 1 48.5222H5C5 52.9405 8.58172 56.5222 13 56.5222H53C57.4183 56.5222 61 52.9405 61 48.5222H65ZM13 60.5222C6.37258 60.5222 1 55.1496 1 48.5222V2.5222H5V48.5222C5 52.9405 8.58172 56.5222 13 56.5222V60.5222ZM65 2.5222V48.5222C65 55.1496 59.6274 60.5222 53 60.5222V56.5222C57.4183 56.5222 61 52.9405 61 48.5222V2.5222H65Z" fill="#FFAB47" mask="url(#path-3-inside-2_93_202)"/>
<path d="M10.635 48.5222V20.6822H22.275C24.2217 20.6822 25.9017 21.0422 27.315 21.7622C28.9417 22.5889 30.235 23.7755 31.195 25.3222C32.155 26.8422 32.635 28.5222 32.635 30.3622C32.635 32.2022 32.155 33.8955 31.195 35.4422C30.2617 36.9889 28.9817 38.1755 27.355 39.0022C25.9683 39.7222 24.275 40.0822 22.275 40.0822H17.915V48.5222H10.635ZM31.9644 20.6422H58.2044L45.0844 49.0822L31.9644 20.6422ZM45.0844 45.5622L55.9244 22.1222H34.2844L45.0844 45.5622Z" fill="#FFAB47"/>
</svg>
