<svg width="32" height="33" viewBox="0 0 32 33" fill="none" xmlns="http://www.w3.org/2000/svg">
<path d="M28.94 7.77571L16.94 1.31571C16.6482 1.15817 16.3217 1.07568 15.99 1.07568C15.6583 1.07568 15.3319 1.15817 15.04 1.31571L3.04002 7.77571C2.40002 8.11571 2.00002 8.79571 2.00002 9.53571V24.3357C2.00002 25.0757 2.40002 25.7557 3.06002 26.0957L15.06 32.5557C15.3519 32.7133 15.6783 32.7957 16.01 32.7957C16.3417 32.7957 16.6681 32.7133 16.96 32.5557L28.96 26.0957C29.6 25.7557 30 25.0757 30 24.3357V9.53571C30 8.79571 29.6 8.11571 28.94 7.77571ZM27.6 11.0357L17 16.8157V29.9357C17 30.4957 16.56 30.9357 16 30.9357C15.44 30.9357 15 30.4957 15 29.9357V16.8157L4.40002 11.0357C4.11235 10.8726 3.89935 10.6041 3.80605 10.2869C3.71274 9.96964 3.74644 9.62856 3.90002 9.33571C4.24002 8.73571 5.00002 8.51571 5.60002 8.83571L16 14.5157L26.4 8.83571C27 8.49571 27.76 8.73571 28.1 9.33571C28.42 9.93571 28.2 10.6957 27.6 11.0357Z" fill="#E65F41"/>
</svg>
