<svg width="33" height="33" viewBox="0 0 33 33" fill="none" xmlns="http://www.w3.org/2000/svg">
<path d="M16.5605 11.4163C17.6214 11.4163 18.6388 10.9948 19.3889 10.2447C20.1391 9.49454 20.5605 8.47713 20.5605 7.41626C20.5605 6.35539 20.1391 5.33798 19.3889 4.58783C18.6388 3.83769 17.6214 3.41626 16.5605 3.41626C15.4996 3.41626 14.4822 3.83769 13.7321 4.58783C12.9819 5.33798 12.5605 6.35539 12.5605 7.41626C12.5605 8.47713 12.9819 9.49454 13.7321 10.2447C14.4822 10.9948 15.4996 11.4163 16.5605 11.4163ZM10.5605 7.91626C10.5605 8.37589 10.47 8.83101 10.2941 9.25565C10.1182 9.68029 9.86036 10.0661 9.53536 10.3911C9.21035 10.7161 8.82452 10.9739 8.39988 11.1498C7.97524 11.3257 7.52011 11.4163 7.06049 11.4163C6.60086 11.4163 6.14573 11.3257 5.72109 11.1498C5.29645 10.9739 4.91062 10.7161 4.58561 10.3911C4.26061 10.0661 4.0028 9.68029 3.82691 9.25565C3.65102 8.83101 3.56049 8.37589 3.56049 7.91626C3.56049 6.988 3.92924 6.09776 4.58561 5.44139C5.24199 4.78501 6.13223 4.41626 7.06049 4.41626C7.98874 4.41626 8.87898 4.78501 9.53536 5.44139C10.1917 6.09776 10.5605 6.988 10.5605 7.91626ZM29.5605 7.91626C29.5605 8.37589 29.47 8.83101 29.2941 9.25565C29.1182 9.68029 28.8604 10.0661 28.5354 10.3911C28.2104 10.7161 27.8245 10.9739 27.3999 11.1498C26.9752 11.3257 26.5201 11.4163 26.0605 11.4163C25.6009 11.4163 25.1457 11.3257 24.7211 11.1498C24.2965 10.9739 23.9106 10.7161 23.5856 10.3911C23.2606 10.0661 23.0028 9.68029 22.8269 9.25565C22.651 8.83101 22.5605 8.37589 22.5605 7.91626C22.5605 6.988 22.9292 6.09776 23.5856 5.44139C24.242 4.78501 25.1322 4.41626 26.0605 4.41626C26.9887 4.41626 27.879 4.78501 28.5354 5.44139C29.1917 6.09776 29.5605 6.988 29.5605 7.91626ZM9.93749 13.4163C9.36823 14.125 9.05874 15.0072 9.06049 15.9163V23.4163C9.06049 24.6513 9.35849 25.8163 9.88749 26.8433C9.12535 27.244 8.27265 27.4411 7.41196 27.4156C6.55128 27.39 5.71178 27.1426 4.97479 26.6973C4.2378 26.252 3.6283 25.6239 3.20532 24.8739C2.78235 24.1239 2.56023 23.2773 2.56049 22.4163V15.9163C2.56049 15.2532 2.82388 14.6173 3.29272 14.1485C3.76156 13.6797 4.39744 13.4163 5.06049 13.4163H9.93749ZM23.2335 26.8433C23.7775 25.7829 24.061 24.6081 24.0605 23.4163V15.9163C24.0605 14.9703 23.7325 14.1013 23.1835 13.4163H28.0605C28.7235 13.4163 29.3594 13.6797 29.8283 14.1485C30.2971 14.6173 30.5605 15.2532 30.5605 15.9163V22.4163C30.5607 23.2773 30.3386 24.1239 29.9156 24.8739C29.4927 25.6239 28.8832 26.252 28.1462 26.6973C27.4092 27.1426 26.5697 27.39 25.709 27.4156C24.8483 27.4411 23.9956 27.244 23.2335 26.8433ZM13.0605 13.4163C12.3974 13.4163 11.7616 13.6797 11.2927 14.1485C10.8239 14.6173 10.5605 15.2532 10.5605 15.9163V23.4163C10.5605 25.0076 11.1926 26.5337 12.3178 27.6589C13.4431 28.7841 14.9692 29.4163 16.5605 29.4163C18.1518 29.4163 19.6779 28.7841 20.8031 27.6589C21.9283 26.5337 22.5605 25.0076 22.5605 23.4163V15.9163C22.5605 15.2532 22.2971 14.6173 21.8283 14.1485C21.3594 13.6797 20.7235 13.4163 20.0605 13.4163H13.0605Z" fill="#E65F41"/>
</svg>
