<svg width="36" height="37" viewBox="0 0 36 37" fill="none" xmlns="http://www.w3.org/2000/svg">
<path d="M6.52161 0.387024L32.1857 6.00668H34.9627V36.3817H5.85336C5.36851 36.3817 4.90352 36.1891 4.56068 35.8462C4.21784 35.5034 4.02524 35.0384 4.02524 34.5536V26.8999L6.46761 0.466055L6.52161 0.387024Z" fill="#36697F"/>
<path d="M6.52164 0.381653H30.6388C31.1237 0.381653 31.5887 0.574258 31.9315 0.917098C32.2743 1.25994 32.4669 1.72493 32.4669 2.20978V25.6942H6.52164V0.381653Z" fill="#37A5CC"/>
<path d="M6.52164 25.6942V0.381653L1.03726 3.68634V28.9988L6.52164 25.6942Z" fill="#7DC6DD"/>
<path d="M19.274 5.7254C15.9474 5.7254 14.0836 7.64915 13.9837 9.7934H17.2699C17.35 8.91168 17.8914 8.17031 19.0735 8.17031C20.0956 8.17031 20.7166 8.63128 20.7166 9.55293V10.0339C20.7166 11.1963 19.6948 11.5169 18.6927 11.5169H17.6105V13.8614H18.6927C19.6948 13.8614 21.2178 14.1221 21.2178 15.6451V16.0658C21.2178 17.3281 20.4162 17.9094 19.1936 17.9094C17.791 17.9094 17.2097 17.1079 17.1095 16.2661H13.8234C14.0439 18.3305 15.4468 20.3943 19.3745 20.3943C22.4404 20.3943 24.7047 18.731 24.7047 16.4666V15.5247C24.7047 13.7011 23.0417 12.7592 21.6588 12.5187C23.0417 12.1981 24.1639 11.1763 24.1639 9.99393V9.23231C24.1636 7.16822 22.1195 5.7254 19.274 5.7254Z" fill="white"/>
</svg>
