<svg width="36" height="37" viewBox="0 0 36 37" fill="none" xmlns="http://www.w3.org/2000/svg">
<path d="M14.123 20.4425C14.2539 18.1272 15.3973 16.0876 17.1225 14.6417C18.8142 13.2215 21.0912 12.3535 23.5758 12.3535C26.0578 12.3535 28.3349 13.2215 30.0279 14.6417C31.7517 16.0875 32.8953 18.1272 33.0275 20.44C33.1582 22.8188 32.1938 25.0287 30.5021 26.6668C28.7771 28.333 26.3233 29.3785 23.5758 29.3785C20.8282 29.3785 18.3697 28.333 16.6458 26.6668C14.9528 25.0285 13.9908 22.8187 14.123 20.4425Z" fill="white"/>
<path d="M18.7268 20.1119C18.7938 18.7849 19.3807 17.6157 20.2658 16.7869C21.1338 15.973 22.3022 15.4753 23.5771 15.4753C24.8506 15.4753 26.019 15.973 26.8877 16.7869C27.7722 17.6157 28.3589 18.7849 28.4267 20.1107C28.4939 21.4741 27.9992 22.7409 27.1309 23.6798C26.2458 24.6348 24.9868 25.2342 23.5771 25.2342C22.1673 25.2342 20.9057 24.6348 20.0212 23.6798C19.1526 22.7409 18.659 21.4741 18.7268 20.1119Z" fill="#265787"/>
<path d="M11.0264 21.6704C11.0348 22.2003 11.1846 23.2306 11.4095 24.035C11.8818 25.7379 12.6831 27.3134 13.7981 28.7016C14.9424 30.1287 16.3513 31.275 17.9789 32.0888C19.6895 32.9435 21.5429 33.379 23.4681 33.3755C25.3901 33.3725 27.2437 32.9284 28.9543 32.0672C30.5817 31.2455 31.9894 30.0943 33.1318 28.6665C34.2461 27.2724 35.0461 25.6943 35.5199 23.9914C35.758 23.131 35.9085 22.2577 35.9688 21.3815C36.0278 20.517 36.0029 19.6479 35.8945 18.7896C35.6825 17.1061 35.1661 15.5265 34.3711 14.0865C33.6441 12.7633 32.707 11.605 31.5925 10.6298L31.5951 10.6278L20.3493 0.885394C20.339 0.876826 20.3307 0.867624 20.3199 0.859691C19.5822 0.220617 18.3413 0.222839 17.5299 0.863182C16.7095 1.51082 16.6156 2.58192 17.3457 3.25733L17.3426 3.26098L22.0331 7.56442L7.73677 7.58155H7.71764C6.53597 7.58314 5.40014 8.45782 5.17514 9.56319C4.9441 10.6893 5.74678 11.6235 6.97543 11.6286L6.97346 11.6335L14.2199 11.6176L1.28911 22.8159C1.27266 22.8295 1.2548 22.8438 1.23961 22.8575C0.0198314 23.9113 -0.374481 25.6636 0.393753 26.7725C1.17352 27.9002 2.83149 27.9023 4.06393 26.779L11.121 20.2628C11.121 20.2628 11.0181 21.1424 11.0264 21.6704ZM29.1607 24.616C27.7066 26.2875 25.6708 27.2351 23.4682 27.2402C21.2622 27.2445 19.2265 26.3052 17.7725 24.6368C17.0619 23.8237 16.54 22.8881 16.218 21.8915C15.9013 20.9109 15.7796 19.8637 15.8612 18.824C15.938 17.7988 16.2086 16.821 16.6403 15.9362C17.0644 15.0666 17.6486 14.2806 18.37 13.6158C19.7833 12.3164 21.5828 11.6127 23.4648 11.6099C25.3489 11.607 27.1471 12.3042 28.5619 13.5994C29.2819 14.2612 29.8655 15.0443 30.2896 15.9127C30.727 16.8022 30.9935 17.7856 31.0719 18.799C31.1524 19.838 31.0302 20.8843 30.7138 21.8643C30.3912 22.8638 29.8711 23.7994 29.1607 24.616Z" fill="#EA7600"/>
</svg>
