<svg width="32" height="33" viewBox="0 0 32 33" fill="none" xmlns="http://www.w3.org/2000/svg">
<path d="M27.3844 6.49875L28.6125 8.07687L27.75 8.74875L28.6157 8.07687L27.3875 6.49875H27.3844Z" fill="black" fill-opacity="0.15"/>
<path d="M29 5.28625H3C2.44687 5.28625 2 5.73313 2 6.28625V26.2863C2 26.8394 2.44687 27.2863 3 27.2863H29C29.5531 27.2863 30 26.8394 30 26.2863V6.28625C30 5.73313 29.5531 5.28625 29 5.28625ZM26.0469 7.53938L16 15.3488L5.95312 7.53938H26.0469ZM27.75 8.74875V25.0363H4.25V8.74875L3.3875 8.07688L4.24687 8.74563L14.9219 17.0456C15.2289 17.2841 15.6066 17.4136 15.9953 17.4136C16.3841 17.4136 16.7618 17.2841 17.0688 17.0456L27.75 8.74875ZM27.75 8.74875L28.6125 8.07688L27.3844 6.49875H27.3875L28.6156 8.07688L27.75 8.74875Z" fill="#E65F41"/>
</svg>
