<svg width="66" height="66" viewBox="0 0 66 66" fill="none" xmlns="http://www.w3.org/2000/svg">
<path d="M0 2H66V61H0V2Z" fill="#E65F41"/>
<mask id="path-2-inside-1_230_133" fill="white">
<path d="M3 2H63V48C63 53.5228 58.5228 58 53 58H13C7.47715 58 3 53.5228 3 48V2Z"/>
</mask>
<path d="M3 2H63H3ZM65 48C65 54.6274 59.6274 60 53 60H13C6.37258 60 1 54.6274 1 48H5C5 52.4183 8.58172 56 13 56H53C57.4183 56 61 52.4183 61 48H65ZM13 60C6.37258 60 1 54.6274 1 48V2H5V48C5 52.4183 8.58172 56 13 56V60ZM65 2V48C65 54.6274 59.6274 60 53 60V56C57.4183 56 61 52.4183 61 48V2H65Z" fill="#FFAB47" mask="url(#path-2-inside-1_230_133)"/>
<path d="M10.635 48V20.16H22.275C24.2217 20.16 25.9017 20.52 27.315 21.24C28.9417 22.0667 30.235 23.2533 31.195 24.8C32.155 26.32 32.635 28 32.635 29.84C32.635 31.68 32.155 33.3733 31.195 34.92C30.2617 36.4667 28.9817 37.6533 27.355 38.48C25.9683 39.2 24.275 39.56 22.275 39.56H17.915V48H10.635ZM31.9644 20.12H58.2044L45.0844 48.56L31.9644 20.12ZM45.0844 45.04L55.9244 21.6H34.2844L45.0844 45.04Z" fill="#FFAB47"/>
<path d="M45.2171 47.1388L33.2159 20.8715L57.1413 20.8715L45.2171 47.1388Z" fill="#FFAB47"/>
</svg>
