<svg width="32" height="33" viewBox="0 0 32 33" fill="none" xmlns="http://www.w3.org/2000/svg">
<path fill-rule="evenodd" clip-rule="evenodd" d="M16 2.28626C12.6763 2.28671 9.46111 3.46964 6.92968 5.62346C4.39824 7.77727 2.71564 10.7615 2.18288 14.0422C1.65012 17.3229 2.30195 20.6862 4.02177 23.5304C5.74158 26.3746 8.41719 28.5141 11.57 29.5663C12.27 29.6963 12.57 29.2663 12.57 28.8963V26.5163C8.67998 27.3563 7.85998 24.6363 7.85998 24.6363C7.58725 23.7787 7.01131 23.0498 6.23998 22.5863C4.96998 21.7263 6.33998 21.7363 6.33998 21.7363C6.78358 21.7989 7.207 21.9621 7.57789 22.2134C7.94878 22.4648 8.25733 22.7975 8.47998 23.1863C8.86732 23.881 9.51471 24.3935 10.2798 24.611C11.0449 24.8285 11.8651 24.7333 12.56 24.3463C12.6164 23.6367 12.9292 22.972 13.44 22.4763C10.34 22.1163 7.06998 20.9163 7.06998 15.5563C7.04731 14.1642 7.5632 12.8171 8.50998 11.7963C8.08144 10.5905 8.13154 9.26624 8.64998 8.09626C8.64998 8.09626 9.81998 7.71626 12.5 9.52626C14.7915 8.90121 17.2085 8.90121 19.5 9.52626C22.17 7.71626 23.34 8.09626 23.34 8.09626C23.8584 9.26624 23.9085 10.5905 23.48 11.7963C24.4268 12.8171 24.9426 14.1642 24.92 15.5563C24.92 20.9363 21.65 22.1163 18.53 22.4663C18.8642 22.805 19.1219 23.2115 19.2858 23.6583C19.4497 24.105 19.5159 24.5817 19.48 25.0563V28.8963C19.48 29.3563 19.73 29.7063 20.48 29.5663C23.6369 28.5128 26.3153 26.3691 28.0348 23.5197C29.7544 20.6703 30.4026 17.3015 29.8633 14.0174C29.324 10.7334 27.6324 7.74884 25.0918 5.59903C22.5513 3.44922 19.328 2.27476 16 2.28626Z" fill="#E65F41"/>
</svg>
