<svg width="32" height="33" viewBox="0 0 32 33" fill="none" xmlns="http://www.w3.org/2000/svg">
<path d="M4.4086 28.6143H27.5915C30.3909 28.6143 31.7972 27.2217 31.7972 24.4628V8.10912C31.7972 5.35026 30.3909 3.95769 27.5915 3.95769H4.4086C1.62288 3.95826 0.202881 5.33769 0.202881 8.10912V24.4634C0.202881 27.2354 1.62288 28.6143 4.4086 28.6143ZM22.4486 16.2531C21.8457 15.7177 21.1629 15.436 20.44 15.436C19.6897 15.436 19.0332 15.6908 18.4172 16.24L12.364 21.6508L9.88631 19.4005C9.32345 18.9051 8.7206 18.6371 8.07831 18.6371C7.4886 18.6371 6.9126 18.892 6.36402 19.3874L2.35945 22.9891V8.21769C2.35945 6.82454 3.10917 6.11483 4.44859 6.11483H27.5515C28.8772 6.11483 29.6406 6.82454 29.6406 8.21769V23.0034L22.4486 16.2531ZM10.1806 16.4005C11.9086 16.4005 13.328 14.9811 13.328 13.24C13.328 11.5125 11.9086 10.0794 10.1806 10.0794C8.44002 10.0794 7.0206 11.5125 7.0206 13.24C7.02195 14.0777 7.3553 14.8807 7.9476 15.4731C8.53991 16.0655 9.34288 16.399 10.1806 16.4005Z" fill="#E65F41"/>
</svg>
