<svg width="32" height="33" viewBox="0 0 32 33" fill="none" xmlns="http://www.w3.org/2000/svg">
<path d="M26.4906 3.78625H5.50938C4.4 3.78625 3.5 4.68625 3.5 5.79563V26.7769C3.5 27.8863 4.4 28.7863 5.50938 28.7863H26.4906C27.6 28.7863 28.5 27.8863 28.5 26.7769V5.79563C28.5 4.68625 27.6 3.78625 26.4906 3.78625ZM26.4906 26.7863C12.4969 26.7831 5.5 26.78 5.5 26.7769C5.50312 12.7831 5.50625 5.78625 5.50938 5.78625C19.5031 5.78938 26.5 5.79251 26.5 5.79563C26.4969 19.7894 26.4937 26.7863 26.4906 26.7863ZM7.20625 13.1581H10.9156V25.0894H7.20625V13.1581ZM9.0625 11.5269C10.2469 11.5269 11.2125 10.5644 11.2125 9.37688C11.2125 9.09454 11.1569 8.81496 11.0488 8.55411C10.9408 8.29326 10.7824 8.05625 10.5828 7.8566C10.3831 7.65695 10.1461 7.49859 9.88527 7.39054C9.62442 7.28249 9.34484 7.22688 9.0625 7.22688C8.78016 7.22688 8.50058 7.28249 8.23973 7.39054C7.97888 7.49859 7.74187 7.65695 7.54222 7.8566C7.34257 8.05625 7.18421 8.29326 7.07616 8.55411C6.96811 8.81496 6.9125 9.09454 6.9125 9.37688C6.90937 10.5644 7.87187 11.5269 9.0625 11.5269ZM16.9469 19.1863C16.9469 17.63 17.2437 16.1238 19.1719 16.1238C21.0719 16.1238 21.1 17.9019 21.1 19.2863V25.0894H24.8062V18.5456C24.8062 15.3331 24.1125 12.8613 20.3594 12.8613C18.5562 12.8613 17.3469 13.8519 16.85 14.7894H16.8V13.1581H13.2406V25.0894H16.9469V19.1863Z" fill="#E65F41"/>
</svg>
