<svg width="66" height="60" viewBox="0 0 66 60" fill="none" xmlns="http://www.w3.org/2000/svg">
<mask id="path-1-inside-1_93_202" fill="white">
<path d="M0 0.522202H66V49.5222C66 55.045 61.5228 59.5222 56 59.5222H10C4.47715 59.5222 0 55.045 0 49.5222V0.522202Z"/>
</mask>
<path d="M0 0.522202H66V49.5222C66 55.045 61.5228 59.5222 56 59.5222H10C4.47715 59.5222 0 55.045 0 49.5222V0.522202Z" fill="#E65F41"/>
<path d="M0 0.522202H66H0ZM67 49.5222C67 55.5973 62.0751 60.5222 56 60.5222H10C3.92487 60.5222 -1 55.5973 -1 49.5222H1C1 54.4928 5.02944 58.5222 10 58.5222H56C60.9706 58.5222 65 54.4928 65 49.5222H67ZM10 60.5222C3.92487 60.5222 -1 55.5973 -1 49.5222V0.522202H1V49.5222C1 54.4928 5.02944 58.5222 10 58.5222V60.5222ZM67 0.522202V49.5222C67 55.5973 62.0751 60.5222 56 60.5222V58.5222C60.9706 58.5222 65 54.4928 65 49.5222V0.522202H67Z" fill="#696969" fill-opacity="0.3" mask="url(#path-1-inside-1_93_202)"/>
<mask id="path-3-inside-2_93_202" fill="white">
<path d="M3 0.522202H63V46.5222C63 52.0451 58.5228 56.5222 53 56.5222H13C7.47715 56.5222 3 52.045 3 46.5222V0.522202Z"/>
</mask>
<path d="M3 0.522202H63H3ZM65 46.5222C65 53.1496 59.6274 58.5222 53 58.5222H13C6.37258 58.5222 1 53.1496 1 46.5222H5C5 50.9405 8.58172 54.5222 13 54.5222H53C57.4183 54.5222 61 50.9405 61 46.5222H65ZM13 58.5222C6.37258 58.5222 1 53.1496 1 46.5222V0.522202H5V46.5222C5 50.9405 8.58172 54.5222 13 54.5222V58.5222ZM65 0.522202V46.5222C65 53.1496 59.6274 58.5222 53 58.5222V54.5222C57.4183 54.5222 61 50.9405 61 46.5222V0.522202H65Z" fill="#FFAB47" mask="url(#path-3-inside-2_93_202)"/>
<path d="M10.635 46.5222V18.6822H22.275C24.2217 18.6822 25.9017 19.0422 27.315 19.7622C28.9417 20.5889 30.235 21.7755 31.195 23.3222C32.155 24.8422 32.635 26.5222 32.635 28.3622C32.635 30.2022 32.155 31.8955 31.195 33.4422C30.2617 34.9889 28.9817 36.1755 27.355 37.0022C25.9683 37.7222 24.275 38.0822 22.275 38.0822H17.915V46.5222H10.635ZM31.9644 18.6422H58.2044L45.0844 47.0822L31.9644 18.6422ZM45.0844 43.5622L55.9244 20.1222H34.2844L45.0844 43.5622Z" fill="#FFAB47"/>
<path d="M45.2171 46.1388L33.2159 19.8715L57.1413 19.8715L45.2171 46.1388Z" fill="#FFAB47"/>
</svg>
