<svg width="36" height="39" viewBox="0 0 36 39" fill="none" xmlns="http://www.w3.org/2000/svg">
<path d="M10.6844 1.55439C13.8421 0.490831 19.5953 -0.130732 23.2147 0.934278C25.5392 1.61825 29.3797 2.8563 32.534 6.44307C35.6882 10.0297 36.1411 12.1929 35.9676 16.8474C35.8296 20.549 34.4486 23.2117 33.9325 24.3522C34.3394 24.3099 35.1576 24.3316 35.3817 24.5554C35.6615 24.8352 35.7294 26.611 34.9071 27.8073C34.3042 28.6842 32.9047 28.5017 31.3993 28.5017L27.9461 32.7038L27.2811 32.5427C25.3314 33.4542 24.3517 35.299 24.3426 35.3161C24.3426 35.3161 23.5447 34.7899 23.2479 34.0183C22.5612 34.2471 21.9985 34.3392 21.1874 34.9851C20.2052 35.7671 19.9925 36.757 19.7635 37.3005C19.7635 37.3005 18.6435 35.9778 18.0838 35.1638C16.3033 35.978 14.5067 38.1911 14.5067 38.1911C14.1506 36.9192 13.6108 35.6889 12.2879 34.8239C12.2778 34.8276 11.1215 35.2446 10.9354 35.7487C9.42005 33.2636 8.13709 33.1039 6.39342 31.2282C4.65024 29.3531 4.61231 28.6764 4.48326 28.4733C3.98496 28.6393 2.60036 28.8714 1.80357 28.4733C0.530261 27.8367 -0.619509 26.275 0.378767 24.8347C0.739041 24.3155 1.6301 24.3514 1.65025 24.3522C1.65025 24.3522 1.41779 24.0049 0.826032 22.8815C0.234297 21.7581 -0.23963 17.7187 0.251814 13.9978C0.743392 10.2768 3.29402 4.0438 10.6844 1.55439ZM22.8036 2.43525C19.4868 1.45945 14.1541 1.93919 11.2606 2.91377C4.48812 5.1951 2.18751 11.0333 1.73717 14.4431C1.28683 17.8528 1.60184 19.3328 1.81138 20.4772C2.06085 21.8397 2.60846 23.4071 3.01939 23.9304C3.44804 24.4758 3.85735 24.5532 2.28013 25.0427C0.714606 25.5285 3.14877 26.1099 3.18638 26.1188C3.18638 26.1188 2.84749 26.5383 2.60826 26.8972C2.15724 27.576 5.36021 27.4753 5.36021 27.4753C5.35919 27.5024 5.31947 28.8079 7.17369 30.4255C9.04768 32.0602 9.75578 32.4265 11.1444 34.7038C11.3152 34.241 12.4509 33.4793 12.4569 33.4753C13.6691 34.2679 14.4635 35.8986 14.7899 37.0642C14.8043 37.0473 16.5739 34.976 18.1991 34.2331C18.7119 34.9791 19.5545 35.8884 19.5545 35.8884C19.7643 35.3904 20.1958 34.8304 21.0956 34.114C21.8389 33.5221 22.7328 33.3667 23.3622 33.1569C23.6302 33.8537 24.0285 33.8164 24.0399 33.8151C24.0399 33.8151 25.3357 32.002 27.1307 31.1628L27.4295 31.9802L31.0077 27.4548C32.3871 27.4548 32.1942 27.0164 32.1942 26.239C32.5928 25.4616 34.0701 25.753 33.9286 25.4216C33.7492 25.0031 32.8467 24.9639 32.4735 25.0026C32.9466 23.9571 34.4398 20.4795 34.5663 17.0876C34.7252 12.8225 34.5261 10.7259 31.6356 7.43916C28.745 4.15223 24.9336 3.06201 22.8036 2.43525Z" fill="#222222"/>
<path d="M22.3536 19.4172C24.743 19.4172 25.9638 19.8847 25.9308 22.6027C25.8977 25.3208 23.6742 26.0194 21.8507 26.0666C20.0272 26.1137 20.9232 29.6453 20.5616 30.4055C20.2002 31.1654 19.6186 31.3009 19.0685 31.301C18.5183 31.301 18.0616 30.5402 18.0616 30.5402C18.0616 30.5402 17.5744 31.301 16.7569 31.301C15.9397 31.3009 15.4206 31.0185 15.3419 30.2014C15.2633 29.3839 15.858 26.0666 14.2101 26.0666C12.2295 26.0664 10.0443 25.0912 10.0704 22.8693C10.0965 20.6472 10.6257 19.4172 13.6134 19.4172C16.5894 19.4174 18.0505 22.3342 18.0616 22.3566C18.0616 22.3566 19.9642 19.4172 22.3536 19.4172ZM13.9552 22.4494C12.6609 22.261 12.0646 22.6115 11.9278 22.8107C12.0012 23.2719 12.3962 24.295 13.3898 24.6974C14.3831 25.0997 15.5951 24.4251 16.0773 24.0373C15.9095 23.5866 15.2504 22.638 13.9552 22.4494ZM24.0958 22.8107C23.9591 22.6116 23.3628 22.261 22.0685 22.4494C20.7731 22.638 20.1131 23.5866 19.9454 24.0373C20.4275 24.425 21.6404 25.0998 22.6339 24.6974C23.6274 24.295 24.0225 23.2719 24.0958 22.8107Z" fill="#222222"/>
</svg>
