<svg width="67" height="71" viewBox="0 0 67 71" fill="none" xmlns="http://www.w3.org/2000/svg">
<g clip-path="url(#clip0_229_127)">
<path d="M67.192 11.9691C65.5661 11.967 63.9421 11.967 62.3181 11.9691C62.3099 42.3299 18.3765 42.682 6.43256 50.6841C6.44203 52.3303 6.42689 65.4161 6.43446 67.0623C6.42499 68.4045 7.12342 69.7095 8.18147 70.3816C8.7739 70.7828 9.47612 70.8966 10.1537 71H67.1768C67.2128 52.9226 67.1825 30.0464 67.192 11.9691Z" fill="#36697F"/>
<path d="M0.566933 7.21643C4.16128 5.03471 7.74806 2.83582 11.3575 0.678894C11.3651 17.3794 11.3386 34.0798 11.3708 50.7803C9.73545 51.8044 8.07172 52.7809 6.43259 53.7935C4.47548 54.9702 2.53351 56.1736 0.572612 57.3408C0.559362 40.6326 0.570719 23.9245 0.566933 7.21643Z" fill="#7DC6DD"/>
<path d="M11.3575 0.678919C27.0806 0.65222 42.8057 0.675105 58.5307 0.667477C60.4727 0.549236 62.2954 2.21986 62.303 4.18989C62.3389 6.78164 62.3068 9.3753 62.3181 11.969C62.3143 24.9029 62.3257 37.835 62.3124 50.7689C45.3325 50.788 28.3507 50.7651 11.3708 50.7803C11.3386 34.0799 11.3651 17.3794 11.3575 0.678919ZM22.5759 11.8679C22.5626 21.1345 22.574 30.4011 22.5702 39.6677C24.5576 39.6677 26.545 39.6677 28.5324 39.6677C28.5343 33.5306 28.5324 27.3936 28.5324 21.2565C30.2094 27.3745 31.7406 33.5363 33.3703 39.6677C35.5299 39.6715 37.6914 39.66 39.8511 39.6734C41.4069 33.8033 42.9003 27.9142 44.4713 22.0461C44.4902 27.9199 44.4713 33.7938 44.4789 39.6658C46.6707 39.6696 48.8625 39.6677 51.0543 39.6677C51.0657 30.4087 51.0392 21.1497 51.0676 11.8908C48.2511 11.8469 45.4328 11.8831 42.6164 11.8717C40.7009 19.2579 38.7646 26.6384 36.8189 34.015C34.9432 26.6422 33.1413 19.2503 31.2882 11.8717C28.3829 11.8679 25.4794 11.8755 22.5759 11.8679Z" fill="#37A5CC"/>
<path d="M22.5759 11.8679C25.4794 11.8755 28.3829 11.8679 31.2883 11.8717C33.1413 19.2502 34.9432 26.6422 36.8189 34.015C38.7647 26.6384 40.701 19.2579 42.6164 11.8717C45.4328 11.8831 48.2512 11.8469 51.0676 11.8907C51.0392 21.1497 51.0657 30.4087 51.0543 39.6677C48.8625 39.6677 46.6707 39.6696 44.4789 39.6658C44.4713 33.7938 44.4903 27.9199 44.4713 22.0461C42.9003 27.9142 41.407 33.8033 39.8511 39.6734C37.6915 39.66 35.5299 39.6715 33.3703 39.6677C31.7406 33.5363 30.2094 27.3745 28.5324 21.2565C28.5324 27.3936 28.5343 33.5306 28.5324 39.6677C26.545 39.6677 24.5576 39.6677 22.5702 39.6677C22.574 30.4011 22.5627 21.1345 22.5759 11.8679Z" fill="white"/>
</g>
<defs>
<clipPath id="clip0_229_127">
<rect width="67" height="71" fill="white"/>
</clipPath>
</defs>
</svg>
