<svg width="28" height="29" viewBox="0 0 28 29" fill="none" xmlns="http://www.w3.org/2000/svg">
<path d="M17.8443 14.5834L16.29 16.1377L17.8443 17.6919L15.7719 19.7643L23.198 27.1903C24.2342 28.2265 25.7884 28.2265 26.8246 27.1903C27.8608 26.1542 27.8608 24.5999 26.8246 23.5637L17.8443 14.5834ZM24.5795 26.3269C23.8888 26.3269 23.198 25.8088 23.198 24.9453C23.198 24.2545 23.7161 23.5637 24.5795 23.5637C25.443 23.5637 25.9611 24.0818 25.9611 24.9453C25.9611 25.8088 25.443 26.3269 24.5795 26.3269ZM6.27353 14.238L7.82782 13.2018L10.4183 10.2659L11.9726 11.8202L13.5269 10.2659L13.3542 10.0932C13.6996 9.22973 13.8723 8.36624 13.8723 7.33005C13.8723 3.53069 10.7637 0.422119 6.96433 0.422119C5.92814 0.422119 5.06465 0.594817 4.20115 0.940214L9.2094 5.94846L5.58274 9.57513L0.574491 4.56688C0.229095 5.43037 0.0563965 6.29386 0.0563965 7.33005C0.0563965 10.9567 2.81957 13.7199 6.27353 14.238Z" fill="#E65F41"/>
<path d="M13.8722 19.0734L15.4265 17.6919L13.8722 16.1376L23.716 6.29377L25.7884 5.60298L27.6881 1.80361L26.4792 0.594727L22.5071 2.32171L21.6436 4.39409L11.9725 14.2379L10.4182 12.6836L9.03666 14.2379C9.03666 14.2379 10.4182 15.2741 8.86396 16.8284C8.00047 17.6919 6.61889 16.6557 4.02841 19.2461L0.401748 22.8728C0.401748 22.8728 -0.634442 24.5998 1.43794 26.6722C3.51032 28.7445 5.2373 27.7084 5.2373 27.7084L8.86396 24.0817C11.2817 21.6639 10.4182 20.1096 11.109 19.4188C12.6633 17.8646 13.8722 19.0734 13.8722 19.0734ZM8.51857 18.3826L9.72745 19.5915L3.16492 26.1541L1.95603 24.9452L8.51857 18.3826Z" fill="#E65F41"/>
</svg>
