<svg width="36" height="36" viewBox="0 0 36 36" fill="none" xmlns="http://www.w3.org/2000/svg">
<path d="M30.0234 0.381653H5.97656C2.6758 0.381653 0 3.04556 0 6.33165V29.3757C0 32.6617 2.6758 35.3257 5.97656 35.3257H30.0234C33.3242 35.3257 36 32.6617 36 29.3757V6.33165C36 3.04556 33.3242 0.381653 30.0234 0.381653Z" fill="#001E36"/>
<path d="M8.1062 24.8865V9.52322C8.1062 9.41112 8.15453 9.35503 8.25119 9.35494L8.40405 9.35452L8.66533 9.35172L9.02842 9.34458L10.2448 9.31896L11.5491 9.29488C12.0078 9.28694 12.4626 9.28293 12.9135 9.28284C14.1369 9.28284 15.1673 9.43511 16.0047 9.73966C16.7602 9.99387 17.4491 10.4128 18.0212 10.9658C18.5064 11.445 18.8813 12.0234 19.1201 12.6609C19.3459 13.2813 19.4604 13.9364 19.4583 14.5963C19.4583 15.8787 19.1604 16.9366 18.5646 17.7699C17.982 18.5829 17.1693 19.2046 16.2302 19.5558L16.1497 19.5852C15.1691 19.9493 14.0832 20.0809 12.8922 20.0892L12.7072 20.0897L12.4325 20.0883L12.294 20.0864L12.1396 20.0827L12.0465 20.0791L11.99 20.0761L11.8509 20.0711L11.6809 20.0676L11.425 20.0658L11.368 20.0656V24.8625C11.3722 24.8919 11.3695 24.9218 11.3601 24.95C11.3507 24.9782 11.3348 25.0038 11.3137 25.0248C11.2926 25.0458 11.2669 25.0616 11.2385 25.071C11.2102 25.0804 11.1801 25.0831 11.1506 25.0789H8.27537C8.1625 25.079 8.10611 25.0149 8.1062 24.8865ZM11.3681 12.2401V17.2509C11.5772 17.2671 11.7703 17.2751 11.9475 17.275H12.7446C13.2941 17.2731 13.8404 17.1917 14.3664 17.0332L14.4713 17.0006C14.9499 16.8592 15.3774 16.5838 15.703 16.2071C16.0057 15.8518 16.1624 15.3621 16.1733 14.7382L16.174 14.6684C16.1867 14.2033 16.0652 13.7444 15.8237 13.3461C15.57 12.9608 15.2032 12.6627 14.7732 12.4925C14.2119 12.2752 13.6122 12.173 13.0102 12.192L12.7039 12.1929L12.5107 12.1946L12.3264 12.1969L12.0662 12.202L11.8764 12.2073L11.7778 12.2109L11.646 12.2171L11.5338 12.224L11.4698 12.229L11.4145 12.2343L11.3902 12.2371L11.3681 12.2401ZM28.7958 16.3398C28.3745 16.1244 27.9276 15.9625 27.4658 15.8579L27.3589 15.835C26.8507 15.7189 26.332 15.655 25.8107 15.6442L25.6805 15.6426C25.375 15.6344 25.0698 15.6708 24.7749 15.7508C24.5872 15.7926 24.4204 15.899 24.3038 16.0513C24.2251 16.1732 24.1832 16.3151 24.1832 16.4601C24.1876 16.6007 24.2385 16.7358 24.328 16.8447C24.4562 16.9939 24.6103 17.1189 24.7829 17.2138L24.8352 17.2414C25.1796 17.426 25.5343 17.5905 25.8978 17.7342C26.7082 18.0045 27.4827 18.3718 28.204 18.8282C28.6955 19.137 29.1022 19.5625 29.3875 20.0665C29.6273 20.5437 29.7475 21.0716 29.7377 21.6051C29.752 22.3097 29.5498 23.0018 29.158 23.5887C28.7386 24.1845 28.156 24.6476 27.4795 24.9229C26.7712 25.2328 25.9013 25.393 24.87 25.4034L24.7628 25.404C24.1235 25.4103 23.485 25.3546 22.8565 25.2377L22.7221 25.2116C22.1929 25.115 21.6778 24.9535 21.1885 24.7307C21.1393 24.7055 21.0978 24.6677 21.0681 24.6212C21.0384 24.5747 21.0216 24.5212 21.0195 24.4661V21.8456C21.0166 21.8202 21.0207 21.7944 21.0314 21.7711C21.042 21.7478 21.0588 21.7278 21.08 21.7133C21.1007 21.7016 21.1245 21.6964 21.1483 21.6986C21.172 21.7007 21.1945 21.7101 21.2127 21.7253C21.7905 22.0645 22.4179 22.3119 23.0722 22.4587C23.649 22.6026 24.2406 22.6793 24.8352 22.6871C25.3986 22.6871 25.8131 22.615 26.0789 22.4707C26.1989 22.4159 26.3003 22.3278 26.3711 22.2168C26.4418 22.1059 26.4787 21.977 26.4775 21.8456C26.4775 21.6375 26.3567 21.4371 26.1152 21.2446C26.014 21.1639 25.8688 21.0762 25.6797 20.9814L25.5893 20.9371L25.4928 20.8919L25.4422 20.869L25.3361 20.8222L25.2809 20.7984L25.1656 20.7502L25.1055 20.7257L24.9809 20.676L24.9162 20.6508L24.7822 20.5995L24.642 20.5472C23.8836 20.2847 23.1646 19.9207 22.5047 19.4653C22.0326 19.1385 21.6439 18.7062 21.3697 18.2031C21.1323 17.7293 21.0122 17.2058 21.0195 16.6764C21.018 16.0402 21.1935 15.4161 21.5266 14.8732C21.9063 14.2754 22.4514 13.7994 23.0964 13.5029C23.8047 13.1504 24.6902 12.9741 25.7528 12.9738C26.3752 12.9688 26.9971 13.0131 27.6124 13.1061C28.058 13.1624 28.4937 13.2797 28.907 13.4547C28.9735 13.4737 29.0271 13.5226 29.0519 13.587C29.0683 13.6457 29.0763 13.7063 29.0761 13.7673V16.1956C29.0796 16.253 29.0519 16.308 29.0036 16.3398C28.9713 16.3558 28.9358 16.3641 28.8997 16.3641C28.8637 16.3641 28.8281 16.3558 28.7958 16.3398Z" fill="#31A8FF"/>
</svg>
