<svg width="36" height="37" viewBox="0 0 36 37" fill="none" xmlns="http://www.w3.org/2000/svg">
<path d="M14.79 3.38165C13.6522 3.38165 12.561 3.83363 11.7565 4.63816C10.952 5.4427 10.5 6.53387 10.5 7.67165V10.1917H16.935C17.52 10.1917 18 11.0467 18 11.6317H7.29C6.15222 11.6317 5.06104 12.0836 4.25651 12.8882C3.45198 13.6927 3 14.7839 3 15.9217V21.5932C3 22.7309 3.45198 23.8221 4.25651 24.6266C5.06104 25.4312 6.15222 25.8832 7.29 25.8832H9.06V21.8632C9.05803 21.3005 9.16714 20.743 9.3811 20.2226C9.59505 19.7022 9.90964 19.2291 10.3068 18.8306C10.704 18.432 11.1759 18.1158 11.6956 17.9C12.2152 17.6842 12.7723 17.5731 13.335 17.5732H21.21C23.58 17.5732 25.5 15.6667 25.5 13.2967V7.67165C25.5 6.53387 25.048 5.4427 24.2435 4.63816C23.439 3.83363 22.3478 3.38165 21.21 3.38165H14.79ZM13.71 5.79665C14.31 5.79665 14.79 5.97665 14.79 6.86165C14.79 7.74665 14.31 8.19815 13.71 8.19815C13.125 8.19815 12.645 7.74815 12.645 6.86315C12.645 5.97815 13.125 5.79665 13.71 5.79665Z" fill="#0288D1"/>
<path d="M26.9385 10.8817V14.9017C26.9403 15.4642 26.831 16.0215 26.617 16.5418C26.4029 17.062 26.0883 17.5349 25.6912 17.9333C25.294 18.3317 24.8221 18.6478 24.3026 18.8635C23.783 19.0791 23.226 19.1902 22.6635 19.1902H14.79C14.2273 19.1882 13.6698 19.2973 13.1494 19.5113C12.629 19.7252 12.156 20.0398 11.7574 20.437C11.3589 20.8341 11.0426 21.3061 10.8268 21.8257C10.6111 22.3454 10.5 22.9025 10.5 23.4652V29.0902C10.5 30.2279 10.952 31.3191 11.7565 32.1236C12.561 32.9282 13.6522 33.3802 14.79 33.3802H21.21C22.3475 33.3802 23.4385 32.9284 24.243 32.1242C25.0474 31.32 25.4996 30.2292 25.5 29.0917V26.5717H19.0635C18.4785 26.5717 18 25.7167 18 25.1317H28.71C29.8478 25.1317 30.939 24.6797 31.7435 23.8751C32.548 23.0706 33 21.9794 33 20.8417V15.1717C33 14.0339 32.548 12.9427 31.7435 12.1382C30.939 11.3336 29.8478 10.8817 28.71 10.8817H26.9385ZM12.48 17.6512L12.474 17.6572L12.531 17.6512H12.48ZM22.29 28.5652C22.875 28.5652 23.355 29.0152 23.355 29.9002C23.355 30.04 23.3275 30.1785 23.2739 30.3077C23.2204 30.4369 23.142 30.5543 23.0431 30.6532C22.9442 30.7521 22.8268 30.8306 22.6976 30.8841C22.5683 30.9376 22.4299 30.9652 22.29 30.9652C21.69 30.9652 21.21 30.7852 21.21 29.9002C21.21 29.0152 21.69 28.5652 22.29 28.5652Z" fill="#FDD835"/>
</svg>
