<svg width="10" height="11" viewBox="0 0 10 11" fill="none" xmlns="http://www.w3.org/2000/svg">
<path d="M1.20825 3.8562C1.27695 3.85342 1.34487 3.86326 1.40845 3.88354L1.47095 3.90698L4.53833 5.31128C4.60415 5.34138 4.66109 5.38258 4.70532 5.4314L4.74536 5.48218C4.79314 5.55288 4.8166 5.63257 4.81665 5.71167V9.75757L4.81274 9.81226C4.80511 9.86638 4.78633 9.91991 4.7561 9.96948C4.72574 10.0192 4.68469 10.0647 4.63403 10.1023L4.58032 10.1365C4.50456 10.1793 4.41624 10.2049 4.32446 10.2087L4.25513 10.2078C4.20999 10.2043 4.16561 10.1959 4.12329 10.1824L4.06079 10.158L0.993408 8.75366C0.927676 8.7236 0.871595 8.68228 0.827393 8.63354L0.787354 8.58276C0.73957 8.51206 0.715134 8.43237 0.715088 8.35327V4.30737L0.718994 4.25366C0.72403 4.2175 0.734146 4.18178 0.749268 4.14722L0.775635 4.09644C0.816134 4.03 0.876616 3.97132 0.952393 3.92847C1.00927 3.89635 1.07283 3.87371 1.13989 3.86304L1.20825 3.8562ZM9.12915 3.78296C9.1977 3.78621 9.26537 3.80835 9.32544 3.84741C9.35557 3.86701 9.38362 3.89039 9.40845 3.91772L9.4729 4.00952C9.50891 4.07744 9.52849 4.15487 9.52856 4.23413V8.28003L9.52368 8.34448C9.51805 8.38673 9.50761 8.42793 9.49146 8.46655L9.46313 8.52222C9.43153 8.57599 9.39041 8.62167 9.34302 8.65601L9.29321 8.68628C9.24441 8.71194 8.52555 9.08203 7.80396 9.44507C7.4433 9.62651 7.08316 9.8061 6.80688 9.93921C6.66844 10.0059 6.55249 10.0603 6.46899 10.0974C6.43731 10.1115 6.41124 10.1208 6.39185 10.1287C6.36892 10.1255 6.34569 10.1242 6.32349 10.1169L6.22876 10.072C6.19868 10.0525 6.17152 10.028 6.14673 10.0007L6.0813 9.90894C6.04534 9.84102 6.02666 9.76355 6.02661 9.68433V5.63843L6.03052 5.57397C6.03738 5.52252 6.0531 5.47318 6.07544 5.42749C6.0931 5.41534 6.118 5.39956 6.14966 5.37964C6.22769 5.33055 6.33812 5.26489 6.47192 5.18726C6.73948 5.03202 7.09274 4.83351 7.44849 4.63647L8.92993 3.82788C8.96126 3.81144 8.99401 3.79922 9.02759 3.79175L9.12915 3.78296ZM5.16138 1.0105C5.21728 1.00553 5.27372 1.01259 5.32739 1.03198L5.38013 1.05542L5.40063 1.06616L5.4231 1.073C6.18985 1.31018 7.77967 2.02937 8.51099 2.32983H8.51196L8.51685 2.33276C8.52159 2.33503 8.52926 2.33879 8.53833 2.34351C8.55725 2.35335 8.58194 2.36641 8.60474 2.38159C8.61428 2.38795 8.62148 2.39497 8.62817 2.40015C8.62798 2.42476 8.63008 2.44931 8.62622 2.47339L8.59399 2.58472C8.57892 2.6201 8.55973 2.65298 8.53735 2.68237L8.46021 2.7605C8.46013 2.76043 8.41997 2.78676 8.32446 2.84644C8.23647 2.90142 8.11524 2.97641 7.97192 3.06421C7.68541 3.23973 7.31084 3.46716 6.93579 3.69214C6.56072 3.91713 6.18606 4.13985 5.89771 4.3064C5.75321 4.38985 5.63125 4.458 5.54321 4.50562C5.5015 4.52817 5.46916 4.54438 5.44653 4.55542C5.38155 4.55634 5.31673 4.54222 5.25708 4.5105L5.24927 4.50659L5.24146 4.50366L2.18774 3.12866C2.15678 3.11198 2.1273 3.09171 2.10083 3.06714L2.02954 2.9812C2.00892 2.94913 1.99213 2.91429 1.97974 2.87769L1.95532 2.76245C1.95035 2.70279 1.95951 2.6439 1.97583 2.58765C1.98953 2.57938 2.006 2.56952 2.02563 2.55835C2.10479 2.51332 2.21873 2.45302 2.35767 2.38159C2.63485 2.23909 3.00252 2.05771 3.37329 1.87671C3.74566 1.69493 4.11359 1.51712 4.40161 1.37671C4.54434 1.30713 4.66666 1.24677 4.7561 1.2019C4.80066 1.17956 4.83879 1.16042 4.86743 1.14526L4.95239 1.09351C4.9987 1.05729 5.05122 1.03235 5.10571 1.01929L5.16138 1.0105Z" stroke="#E65F41" stroke-width="0.5"/>
</svg>
