<svg width="616" height="566" viewBox="0 0 616 566" fill="none" xmlns="http://www.w3.org/2000/svg">
<g clip-path="url(#clip0_230_162)">
<path d="M306.25 175.46C305.29 174.433 304.277 173.853 303.21 173.72C302.807 173.671 302.436 173.469 302.167 173.152C301.898 172.835 301.75 172.425 301.75 172V4.25C301.75 4.17308 301.7 4.09932 301.612 4.04493C301.524 3.99055 301.405 3.96 301.28 3.96C300.993 3.96 300.83 3.72333 300.79 3.25C300.603 2.26333 300.65 1.25333 300.93 0.219998C300.946 0.156444 300.975 0.0967904 301.015 0.0445673C301.054 -0.0076558 301.104 -0.0513944 301.161 -0.0840338C301.218 -0.116673 301.281 -0.137553 301.346 -0.14545C301.411 -0.153348 301.477 -0.148101 301.54 -0.130009L478.76 49.71C478.888 49.7463 478.998 49.8447 479.069 49.9876C479.141 50.1305 479.169 50.3086 479.15 50.49L462.13 209.74C462.121 209.815 462.097 209.887 462.061 209.952C462.024 210.017 461.975 210.074 461.916 210.118C461.858 210.162 461.791 210.193 461.721 210.209C461.652 210.225 461.579 210.225 461.51 210.21L306.25 175.46Z" fill="#B83807"/>
<path d="M300.79 3.25C300.83 3.72333 300.993 3.96001 301.28 3.96001C301.405 3.96001 301.524 3.99055 301.612 4.04494C301.701 4.09932 301.75 4.17309 301.75 4.25V172C301.75 172.425 301.898 172.835 302.167 173.152C302.436 173.469 302.807 173.671 303.21 173.72C304.277 173.853 305.29 174.433 306.25 175.46L301.29 174.34C301.154 174.308 301.032 174.227 300.945 174.109C300.858 173.991 300.81 173.843 300.81 173.69L300.79 3.25Z" fill="#800F04"/>
<path d="M615.27 233.21C613.397 242.383 612.32 251.647 612.04 261L606.45 308.99C605.35 313.003 604.713 317.09 604.54 321.25L603.96 327C602.58 334.273 601.773 341.607 601.54 349L597.5 384.54C596.78 385.573 596.543 386.727 596.79 388C596.07 390.967 595.82 393.967 596.04 397L592.11 429.8C592.072 430.103 591.908 430.401 591.65 430.64L441.05 566.05C440.463 566.577 440.21 566.477 440.29 565.75L495.99 50.28C496.037 49.8867 496.157 49.8333 496.35 50.12L615.95 225.55C616.168 225.877 616.268 226.221 616.23 226.51L615.27 233.21ZM174.04 343.5C173.41 345.69 176.35 366.73 177.6 367.73C186.72 432.49 195.893 497.24 205.12 561.98C205.313 563.333 205.47 564.33 205.59 564.97C205.883 566.443 205.457 566.683 204.31 565.69L49.64 430.85C49.1433 430.418 48.8205 429.85 48.73 429.25L0.420027 104.26C0.405552 104.17 0.415518 104.078 0.449049 103.993C0.48258 103.908 0.538678 103.831 0.612501 103.77C0.686325 103.709 0.775653 103.665 0.872786 103.643C0.969918 103.62 1.07193 103.619 1.17003 103.64L144.31 135.2C144.429 135.227 144.54 135.294 144.629 135.393C144.717 135.493 144.78 135.62 144.81 135.76C145.03 136.847 145.38 139.07 145.86 142.43C155.46 209.423 164.853 276.447 174.04 343.5Z" fill="#EE4000"/>
<path d="M615.27 233.21L612.04 261C612.32 251.647 613.397 242.383 615.27 233.21ZM606.45 308.99L604.96 321L604.54 321.25C604.713 317.09 605.35 313.003 606.45 308.99Z" fill="#B83807"/>
<path d="M604.96 321L604.04 328.75L603.96 327L604.54 321.25L604.96 321Z" fill="#800F04"/>
<path d="M603.96 327L604.04 328.75L601.54 349C601.773 341.607 602.58 334.273 603.96 327ZM174.04 343.5L177.6 367.73C176.35 366.73 173.41 345.69 174.04 343.5ZM597.5 384.54L597.21 387.5L596.79 388C596.543 386.727 596.78 385.573 597.5 384.54Z" fill="#B83807"/>
<path d="M597.21 387.5L596.04 397C595.82 393.967 596.07 390.967 596.79 388L597.21 387.5Z" fill="#800F04"/>
<path d="M433.22 465.78C431.547 472.34 430.8 479 430.98 485.76L422.55 566.09C422.53 566.272 422.437 566.439 422.29 566.561C422.142 566.683 421.95 566.75 421.75 566.75H225C224.906 566.749 224.817 566.716 224.747 566.657C224.677 566.599 224.632 566.518 224.62 566.43L205.52 430.5C205.511 430.438 205.518 430.375 205.538 430.314C205.558 430.254 205.592 430.199 205.637 430.151C205.683 430.104 205.739 430.066 205.801 430.04C205.864 430.014 205.932 430 206 430H436.75C436.805 430 436.86 430.014 436.91 430.04C436.96 430.065 437.005 430.103 437.042 430.15C437.078 430.197 437.106 430.252 437.123 430.313C437.14 430.373 437.146 430.437 437.14 430.5L433.22 465.78Z" fill="#B83807"/>
<path d="M433.22 465.78L430.98 485.76C430.8 479 431.547 472.34 433.22 465.78Z" fill="#800F04"/>
</g>
<defs>
<clipPath id="clip0_230_162">
<rect width="616" height="566" fill="white"/>
</clipPath>
</defs>
</svg>
