<svg width="36" height="37" viewBox="0 0 36 37" fill="none" xmlns="http://www.w3.org/2000/svg">
<path d="M30.0234 0.381653H5.97656C2.6758 0.381653 0 3.12167 0 6.50165V30.2041C0 33.584 2.6758 36.3241 5.97656 36.3241H30.0234C33.3242 36.3241 36 33.584 36 30.2041V6.50165C36 3.12167 33.3242 0.381653 30.0234 0.381653Z" fill="#1E3101"/>
<path d="M6.60407 25.4632V10.0999C6.60407 9.9878 6.65239 9.93171 6.74905 9.93162L6.90191 9.9312C9.72049 9.90098 13.3944 9.69527 15.6207 10.4444C16.9464 10.8905 20.0704 12.7852 20.0472 17.119C20.024 21.4528 18.1213 23.3679 16.1769 24.5815C14.2325 25.795 12.492 25.6556 9.64846 25.6556H6.77324C6.66036 25.6557 6.60397 25.5915 6.60407 25.4632ZM9.866 12.8167V22.797C13.7203 22.797 15.3194 22.009 16.1769 20.1782C17.0344 18.3473 16.9881 15.8444 15.3889 14.2221C13.7898 12.5998 11.5187 12.8138 9.88808 12.8138L9.866 12.8167Z" fill="#99E83F"/>
<path d="M28.2384 16.3829C28.7002 16.4874 29.1471 16.6493 29.5684 16.8647C29.6007 16.8807 29.6362 16.889 29.6723 16.889C29.7084 16.889 29.7439 16.8807 29.7762 16.8647C29.8245 16.833 29.8522 16.778 29.8486 16.7206V14.2923C29.8489 14.2312 29.8409 14.1706 29.8245 14.1119C29.7997 14.0475 29.7461 13.9987 29.6796 13.9796C29.2663 13.8047 28.8306 13.6874 28.385 13.631C27.7696 13.538 27.1478 13.4938 26.5254 13.4987C25.4627 13.499 24.5773 13.6754 23.869 14.0278C23.2239 14.3243 22.6789 14.8003 22.2992 15.3981C21.9661 15.941 21.7906 16.5652 21.7921 17.2013C21.7848 17.7307 21.9049 18.2542 22.1423 18.728C22.4165 19.2312 22.8052 19.6634 23.2772 19.9902C23.9372 20.4457 24.6562 20.8096 25.4146 21.0722L25.5548 21.1244L25.6888 21.1758L25.7535 21.201L25.8781 21.2507L25.9381 21.2752L26.0535 21.3233L26.1087 21.3471L26.2148 21.3939L26.2654 21.4168L26.3619 21.4621L26.4523 21.5063C26.6414 21.6011 26.7865 21.6889 26.8878 21.7695C27.1293 21.9621 27.25 22.1624 27.25 22.3705C27.2513 22.5019 27.2144 22.6308 27.1437 22.7418C27.0729 22.8527 26.9715 22.9409 26.8515 22.9956C26.5857 23.1399 26.1712 23.2121 25.6078 23.2121C25.0132 23.2043 24.4216 23.1276 23.8448 22.9836C23.1905 22.8368 22.5631 22.5894 21.9853 22.2503C21.9671 22.235 21.9446 22.2257 21.9208 22.2235C21.8971 22.2214 21.8733 22.2265 21.8526 22.2382C21.8314 22.2528 21.8146 22.2728 21.804 22.2961C21.7933 22.3194 21.7892 22.3451 21.7921 22.3705V24.991C21.7942 25.0461 21.8109 25.0996 21.8406 25.1461C21.8703 25.1926 21.9119 25.2304 21.9611 25.2557C22.4504 25.4784 22.9655 25.6399 23.4946 25.7365L23.6291 25.7626C24.2576 25.8795 24.896 25.9352 25.5354 25.9289L25.6426 25.9284C26.6739 25.9179 27.5438 25.7577 28.2521 25.4479C28.9286 25.1726 29.5112 24.7094 29.9306 24.1137C30.3224 23.5267 30.5246 22.8346 30.5103 22.13C30.5201 21.5965 30.3999 21.0686 30.1601 20.5914C29.8748 20.0874 29.4681 19.6619 28.9766 19.3531C28.2552 18.8968 27.4808 18.5294 26.6704 18.2591C26.3069 18.1154 25.9522 17.9509 25.6078 17.7664L25.5555 17.7388C25.3829 17.6438 25.2288 17.5188 25.1006 17.3696C25.0111 17.2608 24.9602 17.1256 24.9557 16.985C24.9558 16.84 24.9976 16.6981 25.0764 16.5762C25.1929 16.4239 25.3598 16.3175 25.5475 16.2758C25.8424 16.1958 26.1475 16.1593 26.4531 16.1676L26.5833 16.1691C27.1046 16.1799 27.6233 16.2439 28.1315 16.3599L28.2384 16.3829Z" fill="#99E83F"/>
</svg>
