<svg xmlns="http://www.w3.org/2000/svg" width="133" height="133" viewBox="0 0 133 133">
  <defs>
    <style>
      .cls-1 {
        fill: none;
        stroke: #000;
        stroke-linejoin: round;
        stroke-width: 8px;
        fill-rule: evenodd;
      }
    </style>
  </defs>
  <path class="cls-1" d="M7.656,118.963v-0.926H123.344v0.926H7.656Zm58.6-65.288h-0.1V41.348h0.1V53.675ZM65.5,54A52.5,52.5,0,0,1,118,106.5a45.425,45.425,0,0,1-1.342,11.169l-102.344-.11a44.672,44.672,0,0,1-.978-5.334A47.938,47.938,0,0,1,13,106.5,52.5,52.5,0,0,1,65.5,54Zm0-44.46A14.96,14.96,0,1,1,50.54,24.5,14.96,14.96,0,0,1,65.5,9.54Z"/>
</svg>
