<svg width="36" height="37" viewBox="0 0 36 37" fill="none" xmlns="http://www.w3.org/2000/svg">
<path d="M30.0234 0.381653H5.97656C2.6758 0.381653 0 3.12167 0 6.50165V30.2041C0 33.584 2.6758 36.3241 5.97656 36.3241H30.0234C33.3242 36.3241 36 33.584 36 30.2041V6.50165C36 3.12167 33.3242 0.381653 30.0234 0.381653Z" fill="#1E3101"/>
<path d="M8 25.5867V9.78442C8 9.66912 8.04833 9.61143 8.14498 9.61133L8.29784 9.6109L8.55912 9.60802L8.92222 9.60067L10.1386 9.57432L11.4429 9.54955C11.9016 9.54139 12.3564 9.53727 12.8073 9.53717C14.0307 9.53717 15.0611 9.69379 15.8985 10.007C16.654 10.2685 17.3429 10.6994 17.915 11.2682C18.4002 11.7612 18.7751 12.356 19.0139 13.0117C19.2397 13.6499 19.3542 14.3237 19.3521 15.0024C19.3521 16.3215 19.0542 17.4097 18.4584 18.2667C17.8758 19.1029 17.0631 19.7424 16.124 20.1036L16.0435 20.1338C15.0629 20.5084 13.977 20.6437 12.786 20.6522L12.601 20.6528L12.3263 20.6514L12.1878 20.6494L12.0334 20.6456L11.9403 20.6419L11.8838 20.6389L11.7447 20.6337L11.5747 20.6301L11.3188 20.6282L11.2618 20.6281V25.5619C11.266 25.5922 11.2633 25.623 11.2539 25.652C11.2445 25.681 11.2286 25.7073 11.2075 25.7289C11.1864 25.7505 11.1607 25.7668 11.1323 25.7765C11.104 25.7861 11.0739 25.7889 11.0444 25.7845H8.16917C8.0563 25.7846 7.99991 25.7187 8 25.5867ZM11.2619 12.5789V17.7329C11.471 17.7495 11.6641 17.7578 11.8413 17.7577H12.6384C13.1879 17.7558 13.7342 17.672 14.2602 17.509L14.3651 17.4755C14.8437 17.33 15.2712 17.0467 15.5968 16.6593C15.8995 16.2938 16.0562 15.7902 16.0671 15.1484L16.0678 15.0766C16.0805 14.5982 15.959 14.1262 15.7175 13.7165C15.4638 13.3202 15.097 13.0136 14.667 12.8385C14.1057 12.615 13.506 12.5099 12.904 12.5295L12.5977 12.5304L12.4045 12.5321L12.2202 12.5345L11.96 12.5397L11.7702 12.5452L11.6716 12.5489L11.5398 12.5553L11.4276 12.5623L11.3636 12.5675L11.3083 12.573L11.284 12.5759L11.2619 12.5789Z" fill="#99E83F"/>
<path d="M28.3267 16.4587H26L26 22.4959C26.0143 23.2206 27.7898 23.1416 28.3218 23.1738V25.7062C27.5905 26.1924 26.9883 26.2325 26.0156 26.2325C25.043 26.2325 24.4838 26.1837 23.9955 25.9386C23.5073 25.6936 22.8178 25.1651 22.4006 24.0388C22.4006 20.4388 22.4006 20.573 22.4006 16.4587H20.8027V13.4301H22.5539L22.6 10.1531L26 9.63879V13.4301H28.3267V16.4587Z" fill="#99E83F"/>
</svg>
