<svg width="9" height="8" viewBox="0 0 9 8" fill="none" xmlns="http://www.w3.org/2000/svg">
<path d="M0.425976 6.77774C0.370304 6.8785 0.342834 6.99129 0.346228 7.10518C0.349621 7.21906 0.383764 7.33018 0.445347 7.42775C0.506929 7.52533 0.593863 7.60606 0.697721 7.66211C0.801579 7.71817 0.91884 7.74765 1.03814 7.7477H7.96072C8.08068 7.74765 8.19858 7.71784 8.30285 7.66119C8.40712 7.60454 8.49419 7.523 8.55553 7.42454C8.61688 7.32609 8.65039 7.2141 8.65278 7.09956C8.65517 6.98501 8.62637 6.87184 8.56919 6.77113L5.06057 0.598649C4.79651 0.133949 4.09801 0.137918 3.83949 0.60438L0.425976 6.77774Z" fill="#E65F41"/>
</svg>
