<svg width="36" height="37" viewBox="0 0 36 37" fill="none" xmlns="http://www.w3.org/2000/svg">
<path d="M18 0.631653C27.8031 0.631653 35.75 8.57859 35.75 18.3817C35.75 28.1847 27.8031 36.1317 18 36.1317C8.19694 36.1317 0.25 28.1847 0.25 18.3817C0.25 8.57859 8.19694 0.631653 18 0.631653ZM18 2.24103C9.08559 2.24103 1.85938 9.46725 1.85938 18.3817C1.85938 27.2961 9.08559 34.5223 18 34.5223C26.9144 34.5223 34.1406 27.2961 34.1406 18.3817C34.1406 9.46725 26.9144 2.24103 18 2.24103Z" stroke="black" stroke-width="0.5"/>
<path d="M33.891 18.3816C33.891 27.1581 26.7763 34.2727 18 34.2727C9.22366 34.2727 2.10895 27.158 2.10895 18.3816C2.10895 9.60531 9.22366 2.4906 18 2.4906C26.7763 2.4906 33.891 9.60531 33.891 18.3816Z" fill="black" fill-opacity="0.87"/>
<path d="M19.9689 23.4058V14.6178C19.9689 12.686 18.7989 12.0059 18.7989 12.0059C18.7989 12.0059 20.241 11.9243 20.8395 12.5773C23.0977 9.85644 27.6143 8.60495 27.6143 8.60495L24.4854 12.8221V23.4059C25.6281 25.3648 28.4849 22.5353 29.3828 21.3653C28.8658 22.8345 26.4988 26.562 22.8801 28.6569L20.4586 26.562L17.7923 29.2827C14.9778 28.925 11.9155 28.1672 9.43954 25.5009C10.6364 25.8518 11.2295 25.413 11.2295 24.7935V15.9759C10.8615 13.7501 8.2481 15.5833 6.41948 17.6922C4.89707 19.448 4.07343 21.3583 4.10479 21.6163C3.511 16.1031 11.3568 8.93591 16.0642 7.74847C12.9493 9.91079 14.1873 13.1758 15.5748 12.686V23.7051C17.0124 25.6363 18.4879 24.7252 19.9689 23.4058Z" fill="white"/>
</svg>
