<svg width="36" height="37" viewBox="0 0 36 37" fill="none" xmlns="http://www.w3.org/2000/svg">
<path d="M17.9975 36.3817L32.5387 27.9849L26.9651 24.7615L21.267 28.0533C21.2185 28.08 21.1639 28.0938 21.1085 28.0934C21.0531 28.0929 20.9987 28.0782 20.9506 28.0508C20.9026 28.0226 20.8628 27.9826 20.8348 27.9346C20.8068 27.8866 20.7917 27.8321 20.7908 27.7765V19.9589C20.7908 19.7286 20.9101 19.5202 21.1095 19.4054L27.8803 15.4952C27.9286 15.4677 27.9832 15.4535 28.0387 15.4539C28.0942 15.4544 28.1486 15.4695 28.1964 15.4977C28.2954 15.5526 28.3573 15.6564 28.3584 15.7694V22.3501L33.9356 25.5715V8.77838L17.9972 17.9784L17.9975 36.3817Z" fill="black"/>
<path d="M14.7367 28.0569L9.03574 24.7612L3.45799 27.9844L17.9975 36.3816V17.9783L2.06439 8.77808V25.5704L7.64017 22.3501V15.77C7.6427 15.6572 7.70345 15.5534 7.80105 15.4983C7.84914 15.47 7.90383 15.4549 7.95962 15.4544C8.0154 15.454 8.07033 15.4682 8.11886 15.4957L14.893 19.4054C14.99 19.4618 15.0704 19.5427 15.1263 19.6399C15.1822 19.7371 15.2117 19.8473 15.2117 19.9595V27.7782C15.2109 27.8339 15.1959 27.8884 15.1681 27.9367C15.1403 27.9849 15.1006 28.0253 15.0528 28.0538C15.005 28.0819 14.9506 28.097 14.8952 28.0976C14.8397 28.0982 14.7851 28.0843 14.7367 28.0572" fill="#4D4D4D"/>
<path d="M19.3947 0.381653V6.82228L25.0931 10.1121C25.191 10.1692 25.2492 10.2741 25.2492 10.3888C25.2492 10.5022 25.1896 10.6059 25.0931 10.663L18.3198 14.5758C18.2224 14.631 18.1125 14.66 18.0006 14.66C17.8887 14.66 17.7787 14.631 17.6813 14.5758L10.91 10.663C10.8619 10.6353 10.822 10.5953 10.7943 10.5471C10.7666 10.499 10.7522 10.4443 10.7525 10.3888C10.7521 10.3329 10.7664 10.2779 10.7941 10.2293C10.8217 10.1807 10.8617 10.1403 10.91 10.1121L16.6072 6.82228V0.381653L2.06409 8.77837L17.9975 17.9783L33.9345 8.77865L19.3947 0.381653Z" fill="#808080"/>
</svg>
