<svg width="9" height="8" viewBox="0 0 9 8" fill="none" xmlns="http://www.w3.org/2000/svg">
<path d="M4.50002 0.456076C4.96542 0.456076 5.42626 0.547745 5.85624 0.725845C6.28621 0.903946 6.67689 1.16499 7.00598 1.49408C7.33507 1.82317 7.59611 2.21385 7.77421 2.64382C7.95232 3.0738 8.04399 3.53464 8.04399 4.00004C8.04399 4.46544 7.95232 4.92628 7.77421 5.35626C7.59611 5.78623 7.33507 6.17692 7.00598 6.506C6.67689 6.83509 6.28621 7.09614 5.85624 7.27424C5.42626 7.45234 4.96542 7.54401 4.50002 7.54401C3.5601 7.54401 2.65868 7.17063 1.99406 6.506C1.32944 5.84138 0.956055 4.93996 0.956055 4.00004C0.956055 3.06012 1.32944 2.1587 1.99406 1.49408C2.65868 0.829457 3.5601 0.456076 4.50002 0.456076Z" fill="#E65F41"/>
</svg>
