<svg width="37" height="36" viewBox="0 0 37 36" fill="none" xmlns="http://www.w3.org/2000/svg">
<path d="M15.5912 0H13.5662L12.2162 5.175L10.8662 0H8.61621C9.06621 1.35 9.51621 2.475 9.96621 3.825C10.6412 5.625 11.0912 7.2 11.0912 8.1V13.5H13.1162V8.1L15.5912 0ZM20.9912 10.125V6.75C20.9912 5.625 20.7662 4.95 20.3162 4.275C19.8662 3.6 19.1912 3.375 18.2912 3.375C17.3912 3.375 16.7162 3.825 16.2662 4.5C15.8162 4.95 15.5912 5.625 15.5912 6.75V10.35C15.5912 11.475 15.8162 12.15 16.2662 12.6C16.7162 13.275 17.3912 13.5 18.2912 13.5C19.1912 13.5 19.8662 13.05 20.3162 12.375C20.7662 12.15 20.9912 11.25 20.9912 10.125ZM19.1912 10.575C19.1912 11.475 18.9662 11.925 18.2912 11.925C17.6162 11.925 17.3912 11.475 17.3912 10.575V6.3C17.3912 5.4 17.6162 4.95 18.2912 4.95C18.9662 4.95 19.1912 5.4 19.1912 6.3V10.575ZM27.7412 13.5V3.375H25.9412V11.025C25.4912 11.7 25.2662 11.925 24.8162 11.925C24.5912 11.925 24.3662 11.7 24.3662 11.475V3.375H22.5662V11.25C22.5662 11.925 22.5662 12.375 22.7912 12.825C22.7912 13.275 23.2412 13.5 23.9162 13.5C24.5912 13.5 25.2662 13.05 25.9412 12.375V13.5H27.7412Z" fill="#282828"/>
<path d="M28.6413 23.625C27.9663 23.625 27.7413 24.075 27.7413 24.975V25.875H29.5413V24.975C29.5413 24.075 29.3163 23.625 28.6413 23.625ZM22.1163 23.625C21.8913 23.625 21.4413 23.85 21.2163 24.075V30.15C21.4413 30.375 21.8913 30.6 22.1163 30.6C22.5663 30.6 22.7913 30.15 22.7913 29.25V24.975C22.7913 24.075 22.5663 23.625 22.1163 23.625Z" fill="#E30000"/>
<path d="M33.1411 18.675C32.6911 17.1 31.3411 15.75 29.9911 15.75C26.3911 15.3 22.5661 15.3 18.7411 15.3C14.9161 15.3 11.3161 15.3 7.49111 15.75C6.14111 15.75 4.79111 17.1 4.34111 18.675C3.89111 20.925 3.89111 23.4 3.89111 25.65C3.89111 27.9 3.89111 30.375 4.34111 32.625C4.79111 34.2 5.91611 35.325 7.49111 35.55C11.3161 36 14.9161 36 18.7411 36C22.5661 36 26.1661 36 29.9911 35.55C31.5661 35.325 32.9161 34.2 33.1411 32.625C33.5911 30.375 33.5911 27.9 33.5911 25.65C33.5911 23.4 33.5911 20.925 33.1411 18.675ZM12.4411 20.7H10.1911V32.175H8.16611V20.7H6.14111V18.675H12.4411V20.7ZM17.8411 32.175H16.0411V31.05C15.3661 31.95 14.6911 32.175 14.0161 32.175C13.3411 32.175 13.1161 31.95 12.8911 31.5C12.8911 31.275 12.6661 30.825 12.6661 29.925V22.05H14.4661V29.925C14.4661 30.15 14.6911 30.375 14.9161 30.375C15.3661 30.375 15.5911 30.15 16.0411 29.475V22.05H17.8411V32.175ZM24.5911 29.025C24.5911 29.925 24.5911 30.6 24.3661 31.05C24.1411 31.725 23.6911 32.175 23.0161 32.175C22.3411 32.175 21.6661 31.725 21.2161 31.05V31.95H19.4161V18.675H21.2161V22.95C21.8911 22.275 22.3411 21.825 23.0161 21.825C23.6911 21.825 24.1411 22.275 24.3661 22.95C24.5911 23.4 24.5911 24.075 24.5911 24.975V29.025ZM31.3411 27.45H27.7411V29.25C27.7411 30.15 27.9661 30.6 28.6411 30.6C29.0911 30.6 29.3161 30.375 29.5411 29.925V28.8H31.3411V30.15C31.3411 30.6 31.1161 30.825 30.8911 31.275C30.4411 31.95 29.7661 32.4 28.6411 32.4C27.7411 32.4 27.0661 31.95 26.3911 31.275C25.9411 30.825 25.7161 29.925 25.7161 29.025V25.65C25.7161 24.525 25.9411 23.85 26.1661 23.4C26.6161 22.725 27.2911 22.275 28.4161 22.275C29.3161 22.275 29.9911 22.725 30.4411 23.4C30.8911 23.85 30.8911 24.75 30.8911 25.65V27.45H31.3411Z" fill="#E30000"/>
</svg>
