<svg width="36" height="37" viewBox="0 0 36 37" fill="none" xmlns="http://www.w3.org/2000/svg">
<path fill-rule="evenodd" clip-rule="evenodd" d="M35.9456 34.0579C36.2636 32.995 35.1503 30.9596 33.5806 28.6139C29.4692 22.6704 21.8877 19.5118 17.7621 20.1041L17.7872 19.9414C19.168 18.2842 20.6051 16.4461 22.0546 15.3236C24.8169 16.8594 27.186 16.2403 29.5009 13.7591C30.6145 12.6454 31.0649 11.782 30.8649 11.1686C30.5269 10.1549 29.7136 9.66681 28.4245 9.67954C27.2214 9.73073 25.3242 10.9211 24.5327 11.6318C21.6918 10.3552 19.6642 9.60424 18.4377 9.39147C13.8075 8.56551 9.80283 10.0425 6.43634 13.8091C4.62171 15.874 3.79582 17.0754 3.97104 17.426C4.11898 17.6244 4.57172 17.5782 5.04724 17.5136C6.18863 17.1864 8.84271 16.2812 8.8392 15.7364C8.85734 14.2335 8.92181 13.4601 10.6413 12.2573C13.1842 10.5951 15.1001 10.6829 18.2377 12.9581C19.3767 13.7464 20.2962 14.3304 20.8092 14.6179C18.6414 16.4297 16.797 18.355 15.4344 20.4168C9.99401 21.8032 2.23833 26.0307 0.254182 30.9918C-0.0374038 31.7157 -0.10406 32.0765 0.191604 32.2557C3.28402 33.5319 10.3192 29.3935 14.721 23.7835C18.9466 23.3032 30.8285 24.639 30.0266 28.4386C29.6812 29.2522 29.689 29.411 29.7385 29.6151C30.1777 30.8081 33.0525 33.0125 35.007 33.9828C35.5455 34.2204 35.858 34.2456 35.9456 34.0579ZM26.0844 12.132C25.8232 11.961 27.4065 11.1962 28.5624 11.0058C29.7212 10.8235 30.3129 11.3157 29.8887 11.7318C28.9683 12.5812 26.5251 12.4494 26.0844 12.132ZM5.3851 30.0657C3.9593 30.8455 2.64642 31.4087 2.16893 30.6414C2.00616 29.4525 2.90721 28.2259 4.85951 26.9619C7.1119 25.5186 9.54739 24.5828 12.143 24.0837L12.4308 24.1211C10.5216 26.416 8.06056 28.5411 5.3851 30.0657ZM8.45121 13.196C8.13832 13.7092 7.9381 14.2223 7.85053 14.7354C7.76292 15.1484 7.65014 15.4361 7.5001 15.599C7.18725 15.9242 6.93694 16.0618 6.74916 16.0117C6.62407 15.9992 6.59904 15.9242 6.67414 15.799C6.78671 15.6112 7.03716 15.0733 7.41242 14.1846C7.80047 13.3586 8.13832 12.8955 8.4387 12.7831C8.65153 12.7204 8.65153 12.8581 8.45121 13.196ZM15.7473 9.66681C16.9611 9.64185 18.3379 9.92964 19.8897 10.5305C20.7533 10.8684 21.8919 11.3686 23.3184 12.0573C24.7703 12.6955 25.809 13.0457 26.4473 13.1083C26.5847 13.221 26.5221 13.271 26.2595 13.271C25.0834 13.2085 23.9565 12.9581 22.8679 12.5202L19.7772 11.0812C18.3751 10.4679 17.0112 10.0425 15.6848 9.79204C15.5846 9.74184 15.6096 9.70443 15.7473 9.66689M26.1842 23.1827C24.495 22.3442 22.5804 21.7687 20.4403 21.4307C17.9748 21.2805 16.7359 21.1429 16.6984 21.0302C16.6733 20.9302 16.8361 20.8426 17.199 20.7801C20.2438 20.4683 23.5959 21.4257 27.1105 23.3954C28.096 24.0349 27.2919 23.7581 26.1842 23.1827ZM30.0139 25.6355C29.7763 25.3726 29.7136 25.2851 29.8012 25.3477C30.2266 25.623 30.6648 26.0485 31.1275 26.6368C31.8161 27.4877 32.0288 28.2011 31.7911 28.7891L31.6533 28.9144C31.5407 28.9019 31.4155 28.6892 31.2903 28.2637C31.0458 27.1272 31.0667 26.7945 30.0139 25.6355ZM31.5783 30.0907C31.3192 29.52 31.6339 29.0336 31.9911 29.6152L32.8797 30.9417C33.005 31.1046 33.0172 31.1921 32.9295 31.1796C32.5716 31.1821 31.886 30.6394 31.5783 30.0907ZM19.0138 4.07282C18.538 4.81124 18.3629 5.52464 18.5003 6.21278C18.6255 6.8636 18.9885 7.3766 19.6017 7.73948C20.19 8.10257 21.1035 8.22759 22.3677 8.12753C23.982 8.01482 24.7954 7.6769 24.8081 7.12621C24.8955 6.21285 24.545 5.2116 23.7566 4.14792C22.9056 3.00906 21.9921 2.48341 21.0032 2.59612C20.2399 2.69617 19.5768 3.18428 19.0138 4.07282ZM21.0909 4.44829C20.8211 4.22821 20.92 3.82504 21.216 3.65981L21.7418 3.69735C21.9545 3.83503 22.1046 3.9978 22.1799 4.21056C22.3858 4.81666 21.4806 4.71119 21.0908 4.44829M23.4686 7.07629C23.6064 7.11384 23.6563 7.17663 23.6441 7.2392C23.6192 7.35171 23.3809 7.42673 22.9433 7.46413L22.33 7.42673C21.9672 7.34531 22.3948 7.0161 23.0058 7.02637L23.4686 7.07629Z" fill="black"/>
</svg>
